<svg id="Layer_1" xmlns="http://www.w3.org/2000/svg" viewBox="0 0 226.6 77.9"><style>.st0{fill:#231f20}.st1{fill:#0099d8}.st3{fill:#fff}.st5{fill:#004c6d}</style><path class="st0" d="M94.8 18V.4h6.6c3.1-.2 6.4 1.1 6.4 4.6 0 1.9-1.3 3.3-3.1 3.9 2.2.5 3.9 2 3.9 4.6 0 3.5-4.4 4.8-7.1 4.6h-6.7zm6.7-10.6c1.6 0 2.5-.7 2.5-2.1 0-1.4-.9-2.1-2.5-2.1h-3v4.1h3zm0 7.6c1.8 0 3-.3 3-2.3 0-2-1.2-2.3-3-2.3h-3V15h3zM114.6.4V18h-3.7V.4h3.7zM125.7 16.5c-.8 1.1-1.9 1.9-3.8 1.9-1.2 0-3.6-.9-4-2.7-.2-.8-.2-1.5-.2-2v-8h3.7V13c0 1.3.4 2.8 2.2 2.8 1.1 0 2.1-1 2.2-2.8V5.7h3.7v10c0 .7.1 1.5.1 2.2h-3.7l-.2-1.4zM135.8 12.8c0 1.6.2 3.1 2.1 3.1 1.3 0 1.9-.5 2.2-1.6h3.3c-.3 3-2.7 4-5.5 4-4.2 0-5.9-2.4-5.9-6.5 0-3.7 2.1-6.5 5.9-6.5 2.3 0 4.2.8 5.2 2.9.3.7.5 1.4.6 2.2.1.8.1 1.5.1 2.3h-8zm4.3-2.4c0-1.3-.4-2.6-2.1-2.6-1.7 0-2 1.2-2.1 2.6h4.2zM156.2 6.1c0-1.9-1.1-3.3-3.4-3.3-2.7 0-3.4 4-3.4 6.4 0 2.5.7 6.4 3.4 6.4 2.3 0 3.4-1.5 3.4-3.3h4c-.2 4.4-3.3 6.1-7.4 6.1-5.1 0-7.4-4-7.4-9.2 0-5.1 2.3-9.2 7.4-9.2 4 0 7.2 1.7 7.4 6.1h-4zM165.5 5.7l.1 2.2c.8-1.9 2.3-2.4 4.2-2.4v3.2h-1.6c-.6 0-1.4.4-1.8.9-.4.7-.5 1.4-.5 2.2V18h-3.6V8.2c0-.5-.1-1.5-.1-2.4h3.3zM177.8 18.3c-4 0-6.4-2.6-6.4-6.5s2.4-6.5 6.4-6.5 6.4 2.6 6.4 6.5-2.4 6.5-6.4 6.5zm0-2.4c2.2 0 2.6-2.1 2.6-4 0-2-.4-4-2.6-4s-2.6 2.1-2.6 4 .4 4 2.6 4zM193 9c0-.8-.8-1.2-1.7-1.2-1 0-1.5.3-1.5 1.1 0 1.9 7 .8 7 5.4 0 2.7-3.3 4-5.5 4-2.9 0-5.3-1.1-5.4-3.9h3.4c.1 1 .9 1.5 2 1.5 1 0 1.8-.4 1.8-1.4 0-1-1.8-1.4-2.5-1.6-2.3-.6-4.5-1.1-4.5-3.9 0-2.6 3.1-3.7 5.2-3.7 2.6 0 4.8.9 4.9 3.6H193zM205.2 9c0-.8-.8-1.2-1.7-1.2-1 0-1.5.3-1.5 1.1 0 1.9 7 .8 7 5.4 0 2.7-3.3 4-5.5 4-2.9 0-5.3-1.1-5.4-3.9h3.4c.1 1 .9 1.5 2 1.5 1 0 1.8-.4 1.8-1.4 0-1-1.8-1.4-2.5-1.6-2.3-.6-4.5-1.1-4.5-3.9 0-2.6 3.1-3.7 5.2-3.7 2.6 0 4.8.9 4.9 3.6h-3.2zM94.8 41.9V24.3h6.6c3.1-.2 6.4 1.1 6.4 4.6 0 1.9-1.3 3.3-3.1 3.9 2.2.5 3.9 2 3.9 4.6 0 3.5-4.4 4.8-7.1 4.6h-6.7zm6.7-10.6c1.6 0 2.5-.7 2.5-2.1 0-1.4-.9-2.1-2.5-2.1h-3v4.1h3zm0 7.6c1.8 0 3-.3 3-2.3 0-2-1.2-2.3-3-2.3h-3V39h3zM114.6 24.3v17.6h-3.7V24.3h3.7zM125.7 40.3c-.8 1.1-1.9 1.9-3.8 1.9-1.2 0-3.6-.9-4-2.7-.2-.8-.2-1.5-.2-2v-7.9h3.7V37c0 1.3.4 2.8 2.2 2.8 1.1 0 2.1-1 2.2-2.8v-7.3h3.7v10c0 .7.1 1.5.1 2.2h-3.7l-.2-1.6zM135.8 36.7c0 1.6.2 3.1 2.1 3.1 1.3 0 1.9-.5 2.2-1.6h3.3c-.3 3-2.7 4-5.5 4-4.2 0-5.9-2.4-5.9-6.5 0-3.7 2.1-6.5 5.9-6.5 2.3 0 4.2.8 5.2 2.9.3.7.5 1.4.6 2.2.1.8.1 1.5.1 2.3h-8zm4.3-2.4c0-1.3-.4-2.6-2.1-2.6-1.7 0-2 1.2-2.1 2.6h4.2zM155.7 29.3c-.1-1.8-1.1-2.7-2.9-2.7-1.4 0-2.8.7-2.8 2.3 0 1.9 1.7 2.1 3.2 2.5 2.7.7 6.6 1.4 6.6 5 0 4.4-3.8 5.9-7.6 5.9-4 0-6.9-1.6-6.8-6h3.9c-.1 2 1 3.3 2.9 3.3 1.5 0 3.5-.5 3.5-2.3 0-2.1-2.5-2.2-4-2.6-2.5-.6-5.8-1.7-5.8-4.9 0-4 3.7-5.8 7.3-5.8 3.4 0 6.1 1.9 6.1 5.4h-3.6zM162.5 41.9V24.3h3.6v6.8c.8-1.1 1.9-1.9 3.8-1.9 1.2 0 3.6.9 4 2.7.2.8.2 1.5.2 2v8h-3.7v-7.4c0-1.3-.4-2.8-2.2-2.8-1.1 0-2.1 1-2.2 2.8v7.4h-3.5zM181.1 24.3v3.1h-3.9v-3.1h3.9zm-.1 5.3v12.2h-3.7V29.6h3.7zM187.3 36.7c0 1.6.2 3.1 2.1 3.1 1.3 0 1.9-.5 2.2-1.6h3.3c-.3 3-2.7 4-5.5 4-4.2 0-5.9-2.4-5.9-6.5 0-3.7 2.1-6.5 5.9-6.5 2.3 0 4.2.8 5.2 2.9.3.7.5 1.4.6 2.2.1.8.1 1.5.1 2.3h-8zm4.3-2.4c0-1.3-.4-2.6-2.1-2.6-1.7 0-2 1.2-2.1 2.6h4.2zM201.3 24.3v17.6h-3.7V24.3h3.7zM212.9 24.3h3.7v15.2c0 .8.1 1.6.1 2.4H213c0-.6-.1-1.1-.1-1.7-.8 1.4-2.2 2.1-3.8 2.1-3.6 0-5.3-3.3-5.3-6.5 0-3.3 1.9-6.5 5.7-6.5 1.3 0 2.6.8 3.3 1.8v-6.8zm-2.6 15.5c2 0 2.6-2.4 2.6-4 0-1.7-.7-4-2.6-4-2.3 0-2.6 2.2-2.6 4-.1 1.8.2 4 2.6 4z"/><path class="st1" d="M30 11.8V.2H11.6v11.6H0v18.5h11.6v11.6H30V30.3h11.6V11.8H30zM78.7.2c-4.5 2.3-8.9 3.5-14.2 3.5-5.2 0-9.7-1.3-14.2-3.5-2.9 5.8-3.4 15.2-.9 23 2.4 7.6 7.2 14.5 15 18.8 7.8-4.3 12.6-11.2 15-18.8 2.8-7.8 2.3-17.2-.7-23"/><path fill="#0f99d6" d="M64.6 36.9z"/><path class="st3" d="M27.9 30l-5.2-9.8c-.4-.8-.2-2.2 1.2-2.4l7.7-.7c.5 1.3.7 2.6.7 4-.1 3.6-1.8 6.8-4.4 8.9M27.1 30.6a11.4 11.4 0 0 1-12.6 0l5.6-8.3c.4-.6 1-.5 1.4 0l5.6 8.3zM9.4 21c0-1.4.3-2.8.7-4l7.7.7c1.4.2 1.6 1.6 1.2 2.4L13.7 30c-2.6-2.1-4.3-5.3-4.3-9"/><path class="st1" d="M20.8 24.1c-.1 0-.1 0-.2.1L16.8 30c1.2.5 2.6.8 4 .8s2.8-.3 4-.8L21 24.2c-.1-.1-.1-.1-.2-.1M17.1 19.2l-5.8-.5c-.2.8-.3 1.5-.3 2.3 0 2.5.9 4.7 2.4 6.4l4.1-7.8c0-.1 0-.3-.4-.4"/><path class="st3" d="M20.8 9.6c4.6 0 8.5 2.7 10.4 6.6H23c-1.2 0-1.7-.7-1.7-1.3 0-.7.1-.9.6-1.6.6-.8.2-2.3-1.1-2.3s-1.7 1.5-1.1 2.3c.5.7.6.9.6 1.6 0 .6-.5 1.2-1.7 1.3h-8.1c1.8-3.9 5.7-6.6 10.3-6.6"/><path class="st1" d="M28.3 14.6c-1.2-1.4-2.9-2.5-4.7-3.1.6 1 .1 2.2-.4 2.8-.1.1-.1.2 0 .2h5.1zM24.6 19.2c-.4 0-.5.2-.4.4l4.1 7.8c1.5-1.7 2.4-4 2.4-6.4 0-.8-.1-1.6-.3-2.3l-5.8.5zM18.1 11.6c-1.9.5-3.5 1.6-4.7 3.1h5.1c.1 0 .1-.1 0-.2-.5-.7-1-1.9-.4-2.9"/><path class="st3" d="M76.7 22.3c-2.2 6.5-5.6 12.2-12.1 16.2-6.4-4-9.9-9.7-12.1-16.2-2-5.7-2.4-12.5-.3-17.7 3.2 1.1 5.1 1.4 6.9 1.7 1.6.3 3.1.4 5.5.4s3.9-.2 5.5-.4c1.8-.3 3.6-.6 6.9-1.7 2.1 5.3 1.6 12-.3 17.7"/><path class="st1" d="M70.2 7.9c-1.9.2-3.8.4-5.6.5-1.8 0-3.7-.2-5.6-.5-1.9-.3-3.7-.7-5.7-1.2-1.4 3.9-1.1 8.8 0 13.1 2 8.2 6.9 14.4 11.3 17.2 4.4-2.7 9.3-9 11.3-17.2 1.1-4.3 1.3-9.2 0-13.1-2 .5-3.8.9-5.7 1.2"/><path class="st3" d="M69.2 12.2c-.1.3-.2.3-.4.5-.4.4-1 .8-1.6 1.4-.4.3-.7.5-1 1-.1.1-.2.4-.2.4-1-.2-2-.2-2.7-.4v-.8s1 0 1.1-.6c0 0 0-.2-.1-.3-.1-.1-.4-.2-.5-.2.7.1 1.4.4 2.1.7 0-.1-.1-.4-.1-.4-.1-.1-.2-.2-.5-.3-.5-.1-1.6-.3-1.6-.3h.9c.2 0 .5-.1.5-.2.1-.1 0-.3-.2-.5l-.3-.3c-.1-.2-.3-.4-.5-.6-.2-.3-1-.6-1-.6s-.1-.5.1-.7c.1-.2.5-.2.6-.1.6.3 1.2.6 1.9.8.2.1.2.1.2.4.1.5-.1 1.2 0 1.6 0 .1.2.1.2.1.7-.4 1.2-1 1.9-1.3.5-.4 1.4.1 1.2.7"/><path class="st3" d="M66.1 21.7s.1-1.5.1-2.2c.4-.2.5-.5.3-.8-.1-.2-.4-.3-.5-.3-.8-.2-1.5-.2-2.4-.3-.7-.1-1.3-.2-2-.3-1.4-.4-2.5-1-3.1-2.2-.8-1.5-.1-3.5 1.4-4.2 1.1-.6 2.4-.5 3.5 0 .4.2.6.5.8.8.1.1.3.2.4.4.1.1-.1.1-.1.1-.2.1-1.1.1-1.3 0H62c.4.2.7.4 1.1.6.2.1.4.1.6.2.1 0 .3.1.3.2s-.2.1-.4.2c-.3.1-.8.1-1.2 0-.6-.1-.9-.5-1.3-.3-.3.2-.3.5-.2.9.1.6.7.8 1.2 1 1.8.6 3.6.2 5.3 1.1.7.3 1.4 1 1.6 1.8.6 2.9-2.9 3.3-2.9 3.3"/><path class="st3" d="M63.4 18.6s.3 0 1.2.1c.6 0 1.1.2 1.1.2l-.1 3.1c-.7-.1-1.1-.2-1.8-.3-.2-1.1-.5-1.5-.9-2.3-.1-.2 0-.3 0-.3.1-.1.5-.2.5-.2v-.3z"/><path class="st3" d="M68.1 25.4c-.1.5-.4.9-1 1.2-.6.3-1.1.4-1.1.4v-1.7s.1 0 .2-.1.1-.2.1-.3c0-.1-.1-.2-.2-.3-.2-.1-.4-.1-.5-.1l-2.4-.3c-1.5-.2-2.5-1.1-2.4-2.5.1-.9 1.1-1.2 1.8-1.5.2.4.4.8.5 1.1.1.4.2.6.2.6s-.3.1-.3.3c0 .2.3.3.4.4 1 .1 2.4.3 3.1.6.5.2 1 .4 1.2.8.4.3.5.8.4 1.4"/><path class="st3" d="M64 24.8c.7.1.9.1 1.5.2l-.1 2.8-.7-.4-.6-.3-.1-2.3z"/><path class="st3" d="M66.6 31.4c-.4.3-.8.4-.8.4v-1.2s.1-.1.1-.3c-.1-.2-.9-.8-1.4-1-.5-.2-1.1-.4-1.5-.6-1-.4-1.4-1.3-1-2.3.2-.4.6-.6.8-.7l.6-.3.1 1.4s-.1 0-.2.2.1.4.2.4c.7.3 1.7.7 2.4 1.1.9.5 1.2.9 1.2 1.6.1.6-.2 1-.5 1.3"/><path class="st3" d="M65.3 34.4c0 .2-.1.4-.5.4-.3 0-.5-.1-.5-.5-.1-1.6-.1-4.6-.1-4.6s.5.1.7.3c.1 0 .3.2.5.4 0 .1.1.1.1.2-.2 1.1-.2 3.3-.2 3.8M63.5 33.1c-.1.4.1.6.1.8-.1.3-.3.2-.4 0-.2-.3-.3-.5-.3-1-.1-.8.3-1.2.5-1.3.2-.2.4-.3.4-.3l.1 1.3c-.1 0-.4.1-.4.5"/><path class="st1" d="M62.4 11.5c.2.2.2.4.5.4.2 0 .3-.1.4-.2h.2c-.3-.4-1-.4-1.5-.4.2.2.3.1.4.2"/><path fill="none" stroke="#000" stroke-width=".5" d="M0 51.8h216.7"/><g><path class="st5" d="M.4 56.8h9.9v2.4H6.8v18.5H3.9V59.2H.4v-2.4zM12.1 56.8H15v9h3.9v-9h2.9v20.9h-2.9v-9.5H15v9.5h-2.9V56.8zM24.4 56.8h7.9v2.4h-5v6.6H32v2.4h-4.7v7.1h5v2.4h-7.9V56.8zM40 56.8h2.9v9h3.9v-9h2.9v20.9h-2.9v-9.5h-3.9v9.5H40V56.8zM52.3 56.8h7.9v2.4h-5v6.6h4.7v2.4h-4.7v7.1h5v2.4h-7.9V56.8zM65.8 56.8h3.4l4.3 20.9h-2.9l-1-5.3H65l-1 5.3h-2.9l4.7-20.9zM65.5 70h3.7l-1.8-10.1h-.1L65.5 70zM75.3 56.8h2.9v18.5h4.9v2.4h-7.8V56.8zM81.2 56.8h9.9v2.4h-3.5v18.5h-2.9V59.2h-3.5v-2.4zM92.8 56.8h2.9v9h3.9v-9h2.9v20.9h-2.9v-9.5h-3.9v9.5h-2.9V56.8zM111 62.1c0-2.9 1-5.5 4.9-5.5 3.7 0 4.9 1.9 4.9 5.2v10.6c0 2.9-1 5.5-4.9 5.5-3.7 0-4.9-1.9-4.9-5.2V62.1zm2.9 10.8c0 1.8.8 2.8 2 2.8s2-1 2-2.8v-11c0-2.1-.7-3-2-3s-2 1-2 3v11zM123.4 56.8h7.9v2.4h-5v6.6h4.7v2.4h-4.7v9.5h-2.9V56.8zM141.8 56.8h3.4l4.3 20.9h-2.9l-1-5.3H141l-1 5.3h-2.9l4.7-20.9zm-.4 13.2h3.7l-1.8-10.1h-.1L141.4 70zM151.3 56.8h4.6l2.7 16h.1l2.7-16h4.5v20.9h-2.7V58.9h-.2l-3 18.9h-2.9l-3.2-18.9h-.1v18.9h-2.6v-21zM168.5 56.8h7.9v2.4h-5v6.6h4.7v2.4h-4.7v7.1h5v2.4h-7.9V56.8zM178.1 56.8h4.5c4.2 0 4.7 1.1 4.7 5.7 0 2.8-.4 4-2.8 4.8v.1c2 .2 2.6 1.2 2.6 3.2v4.6c0 .8 0 1.8.2 2.7h-2.7c-.3-.5-.3-1-.3-1.9v-4.7c0-2-.3-2.5-2.3-2.5h-1v9.1h-2.9V56.8zm2.9 9.4h.8c2.3 0 2.6-.4 2.6-3.6 0-3.1-.2-3.4-2-3.4H181v7zM189.8 56.8h2.9v20.9h-2.9V56.8zM195 62.1c0-2.9 1-5.5 4.9-5.5 2.9 0 4.2 1.5 4.2 3.8v2.1h-2.7V61c0-1.3-.5-2.2-1.7-2.2-1.5 0-1.8 1.1-1.8 3.6v10.3c0 2.5.8 2.9 1.7 2.9 1.1 0 1.8-.8 1.8-2.5v-1.5h2.7V74c0 2.2-.9 3.9-4.3 3.9-3.7 0-4.8-1.9-4.8-5.2V62.1zM209.6 56.8h3.4l4.3 20.9h-2.9l-1-5.3h-4.5l-1 5.3H205l4.6-20.9zm-.4 13.2h3.7l-1.8-10.1h-.1L209.2 70z"/></g><g><path class="st5" d="M219.4 52.7h.8v.5c0 .4.1.6.5.6s.5-.3.5-.7c0-.5 0-.6-.9-1.5-.5-.5-.9-1-.9-1.8 0-.9.4-1.4 1.3-1.4.4 0 .7.1.9.3.1.1.2.3.2.7v.5h-.8v-.5c0-.3-.1-.5-.4-.5-.3 0-.5.2-.5.6 0 .4.1.6.8 1.4.8.8.9 1.1.9 1.8 0 .9-.4 1.4-1.3 1.4-.7 0-1.2-.3-1.2-1v-.4zM222.6 48.6h1.3l.7 4.4.7-4.4h1.2v5.8h-.8v-5.2l-.8 5.2h-.8l-.9-5.2v5.2h-.7v-5.8z"/></g></svg>