<?xml version="1.0" encoding="utf-8"?>
<!-- Generator: Adobe Illustrator 25.2.1, SVG Export Plug-In . SVG Version: 6.00 Build 0)  -->
<svg version="1.1" id="Layer_1" xmlns="http://www.w3.org/2000/svg" xmlns:xlink="http://www.w3.org/1999/xlink" x="0px" y="0px"
	 viewBox="0 0 24 24" style="enable-background:new 0 0 24 24;" xml:space="preserve">
<style type="text/css">
	.st0{fill:#3F3F3F;}
</style>
<path id="Path" class="st0" d="M12.909,16.858l2.961-2.9c0.376-0.365,0.974-0.365,1.35,0c0.365,0.353,0.374,0.935,0.02,1.3
	c-0.007,0.007-0.014,0.014-0.02,0.02l-4.545,4.444c-0.376,0.365-0.974,0.365-1.35,0l-4.545-4.44c-0.365-0.353-0.374-0.935-0.02-1.3
	c0.007-0.007,0.014-0.014,0.02-0.02c0.376-0.365,0.974-0.365,1.35,0l2.961,2.9V4.889c0-0.502,0.407-0.909,0.909-0.909
	c0.502,0,0.909,0.407,0.909,0.909V16.858z"/>
</svg>
