<?xml version="1.0" encoding="utf-8"?>
<!-- Generator: Adobe Illustrator 25.2.1, SVG Export Plug-In . SVG Version: 6.00 Build 0)  -->
<svg version="1.1" id="Layer_1" xmlns="http://www.w3.org/2000/svg" xmlns:xlink="http://www.w3.org/1999/xlink" x="0px" y="0px"
	 viewBox="0 0 44 44" style="enable-background:new 0 0 44 44;" xml:space="preserve">
<style type="text/css">
	.st0{fill:#0072A7;}
	.st1{fill:none;stroke:#65AACA;}
	.st2{fill:#FFFFFF;}
</style>
<g id="LinkedIn" transform="translate(-524 -480)">
	<g id="Circle" transform="translate(524 480)">
		<circle class="st0" cx="22" cy="22" r="22"/>
		<circle class="st1" cx="22" cy="22" r="21.5"/>
	</g>
	<path id="Icon" class="st2" d="M554.998,503.96v6.285h-3.644v-5.865c0-1.474-0.527-2.479-1.846-2.479
		c-0.843,0.005-1.591,0.539-1.87,1.334c-0.094,0.286-0.134,0.587-0.121,0.888v6.122h-3.645c0,0,0.048-9.933,0-10.962h3.645v1.554
		c-0.007,0.012-0.017,0.024-0.024,0.035h0.024v-0.035c0.672-1.169,1.938-1.867,3.285-1.811c2.4,0,4.2,1.567,4.2,4.934
		L554.998,503.96z M540.061,493.999c-1.046-0.09-1.966,0.685-2.056,1.73c-0.005,0.055-0.007,0.109-0.007,0.164
		c-0.005,1.043,0.837,1.893,1.88,1.898c0.045,0,0.09-0.001,0.134-0.004h0.024c1.046,0.089,1.965-0.687,2.054-1.732
		c0.005-0.054,0.007-0.108,0.007-0.162c0.003-1.046-0.842-1.896-1.888-1.899c-0.05,0-0.1,0.002-0.149,0.005H540.061z
		 M538.215,510.246h3.644v-10.962h-3.644V510.246z"/>
</g>
</svg>
