<?xml version="1.0" encoding="utf-8"?>
<!-- Generator: Adobe Illustrator 25.2.1, SVG Export Plug-In . SVG Version: 6.00 Build 0)  -->
<svg version="1.1" id="Layer_1" xmlns="http://www.w3.org/2000/svg" xmlns:xlink="http://www.w3.org/1999/xlink" x="0px" y="0px"
	 viewBox="0 0 44 44" style="enable-background:new 0 0 44 44;" xml:space="preserve">
<style type="text/css">
	.st0{fill:#0072A7;}
	.st1{fill:none;stroke:#65AACA;}
	.st2{fill:#FFFFFF;}
</style>
<g id="Twitter" transform="translate(-404 -480)">
	<g id="Circle" transform="translate(404 480)">
		<circle class="st0" cx="22" cy="22" r="22"/>
		<circle class="st1" cx="22" cy="22" r="21.5"/>
	</g>
	<path id="Icon" class="st2" d="M434,496.539c-0.599,0.266-1.234,0.44-1.885,0.517c0.686-0.41,1.199-1.055,1.443-1.816
		c-0.644,0.384-1.349,0.654-2.085,0.8c-1.243-1.322-3.322-1.386-4.643-0.143c-0.852,0.801-1.214,1.994-0.951,3.133
		c-2.639-0.132-5.098-1.379-6.765-3.429c-0.871,1.5-0.426,3.418,1.015,4.382c-0.521-0.016-1.03-0.157-1.486-0.41
		c-0.019,1.578,1.086,2.947,2.633,3.26c-0.484,0.131-0.991,0.151-1.483,0.056c0.43,1.337,1.663,2.253,3.067,2.279
		c-1.376,1.079-3.124,1.568-4.86,1.36c1.501,0.965,3.248,1.477,5.032,1.475c5.127,0.032,9.31-4.098,9.342-9.225
		c0.001-0.18-0.003-0.359-0.012-0.539C433.005,497.774,433.559,497.198,434,496.539z"/>
</g>
</svg>
