<?xml version="1.0" encoding="utf-8"?>
<!-- Generator: Adobe Illustrator 25.2.1, SVG Export Plug-In . SVG Version: 6.00 Build 0)  -->
<svg version="1.1" id="Layer_1" xmlns="http://www.w3.org/2000/svg" xmlns:xlink="http://www.w3.org/1999/xlink" x="0px" y="0px"
	 viewBox="0 0 56.7 56.7" style="enable-background:new 0 0 56.7 56.7;" xml:space="preserve">
<style type="text/css">
	.st0{fill:#0072a7;}
</style>
<path class="st0" d="M3.6,19.9h10.9v32.8H3.6V19.9z M9.1,4C5.4,4,2.9,6.5,2.9,9.7c0,3.1,2.4,5.7,6,5.7H9c3.8,0,6.2-2.5,6.2-5.7
	C15.1,6.5,12.8,4,9.1,4z M41.2,19.1c-5.8,0-8.4,3.2-9.8,5.4v-4.6H20.5c0.1,3.1,0,32.8,0,32.8h10.9V34.3c0-1,0.1-2,0.4-2.7
	c0.8-2,2.6-4,5.6-4c3.9,0,5.5,3,5.5,7.4v17.5h10.9V33.8C53.8,23.8,48.4,19.1,41.2,19.1z"/>
</svg>
